<?xml version="1.0" encoding="UTF-8" standalone="no"?>
<svg
   fill="none"
   viewBox="0 0 128 128"
   height="128"
   width="128"
   version="1.1"
   id="svg7937"
   sodipodi:docname="Casaos.svg"
   inkscape:version="1.2.2 (b0a8486541, 2022-12-01, custom)"
   xmlns:inkscape="http://www.inkscape.org/namespaces/inkscape"
   xmlns:sodipodi="http://sodipodi.sourceforge.net/DTD/sodipodi-0.dtd"
   xmlns="http://www.w3.org/2000/svg"
   xmlns:svg="http://www.w3.org/2000/svg">
  <defs
     id="defs7941" />
  <sodipodi:namedview
     id="namedview7939"
     pagecolor="#ffffff"
     bordercolor="#cccccc"
     borderopacity="1"
     inkscape:showpageshadow="0"
     inkscape:pageopacity="1"
     inkscape:pagecheckerboard="0"
     inkscape:deskcolor="#d1d1d1"
     showgrid="false"
     inkscape:zoom="1.5267442"
     inkscape:cx="429.01752"
     inkscape:cy="89.733435"
     inkscape:window-width="1920"
     inkscape:window-height="1027"
     inkscape:window-x="0"
     inkscape:window-y="25"
     inkscape:window-maximized="1"
     inkscape:current-layer="svg7937" />
  <path
     fill="#4ce7ff"
     d="m 32.000001,107.62393 c 17.6733,0 32,-14.3267 32,-31.999998 0,-17.673136 -14.3267,-32 -32,-32 -17.673135,0 -32.00000014665592,14.326864 -32.00000014665592,32 C 8.5334408e-7,93.29723 14.326866,107.62393 32.000001,107.62393 Z"
     opacity="0.95"
     id="path7919"
     style="stroke-width:0.547009;opacity:1" />
  <path
     fill="#0067c2"
     d="m 64.000001,107.76068 c 24.168477,0 43.760679,-19.5922 43.760679,-43.760677 0,-24.16837 -19.592202,-43.760684 -43.760679,-43.760684 -24.16837,0 -43.760684,19.592314 -43.760684,43.760684 0,24.168477 19.592314,43.760677 43.760684,43.760677 z"
     opacity="0.95"
     id="path7921"
     style="stroke-width:0.547009;opacity:1" />
  <path
     fill="#4ce7ff"
     d="M 96.000002,107.62393 C 113.6733,107.62393 128,93.29723 128,75.623932 c 0,-17.673136 -14.3267,-32 -31.999998,-32 -17.673301,0 -32.000001,14.326864 -32.000001,32 0,17.673298 14.3267,31.999998 32.000001,31.999998 z"
     opacity="0.95"
     id="path7923"
     style="stroke-width:0.547009;opacity:1" />
</svg>
