<svg xmlns="http://www.w3.org/2000/svg" fill="none" viewBox="0 0 860 180" height="180" width="860">
<path fill="#4CE7FF" d="M68.5 169.75C100.809 169.75 127 143.559 127 111.25C127 78.9413 100.809 52.75 68.5 52.75C36.1913 52.75 10 78.9413 10 111.25C10 143.559 36.1913 169.75 68.5 169.75Z" opacity="0.95"></path>
<path fill="#0067C2" d="M127 170C171.183 170 207 134.183 207 90C207 45.8172 171.183 10 127 10C82.8172 10 47 45.8172 47 90C47 134.183 82.8172 170 127 170Z" opacity="0.95"></path>
<path fill="#4CE7FF" d="M185.5 169.75C217.809 169.75 244 143.559 244 111.25C244 78.9413 217.809 52.75 185.5 52.75C153.191 52.75 127 78.9413 127 111.25C127 143.559 153.191 169.75 185.5 169.75Z" opacity="0.95"></path>
<path fill="#0E3157" d="M444.11 71.1502C438.4 64.5402 429.85 60.3502 421.39 59.5002C413.2 58.5202 405.11 58.5902 396.78 60.1802C388.2 61.9802 380.41 67.2302 375.53 74.5002C373.07 78.1202 371.3 82.2102 370.36 86.4802C370.11 87.5602 369.93 88.6502 369.8 89.7502H377.29C377.38 89.1902 377.37 88.6102 377.5 88.0502C378.24 84.6802 379.64 81.4602 381.58 78.6102C385.43 72.8602 391.57 68.7302 398.34 67.3202C405.39 65.9602 413.16 65.8302 420.5 66.7502C427.63 67.4902 434.03 70.7302 438.64 75.9702C443.26 81.2202 445.61 87.9802 445.42 95.1702V108.05H396.92C394.72 108.07 392.75 107.99 390.12 108.17C387.66 108.45 385.2 108.97 382.9 109.93C378.28 111.79 374.24 115.01 371.39 119.08C368.54 123.15 366.88 128.06 366.74 133.03C366.66 135.43 366.71 137.39 366.71 139.65C366.75 142.13 367.13 144.61 367.83 147C370.66 156.6 379.49 164.04 389.46 165.1C392.05 165.37 394.21 165.29 396.34 165.3H402.83H415.8C425.3 165.37 434.84 161.52 441.59 154.79C443.01 153.4 444.27 151.87 445.44 150.26V165.64H452.75V118.66V95.1702C452.96 86.7202 449.95 77.6402 444.11 71.1502ZM445.39 118.66V129.09C445.31 129.09 445.33 129.09 445.39 129.1V132.52L445.03 134.86C444.61 136.76 444.04 138.61 443.31 140.41C441.8 143.98 439.59 147.27 436.81 149.99C431.27 155.48 423.59 158.61 415.76 158.56H402.79H396.3C394.1 158.56 391.93 158.6 390.22 158.41C382.88 157.64 376.32 152.12 374.24 145.04C373.73 143.28 373.45 141.45 373.41 139.61C373.41 137.55 373.37 135.19 373.44 133.27C373.54 129.59 374.77 125.98 376.87 122.97C378.98 119.96 381.98 117.58 385.38 116.2C388.86 114.73 392.29 114.74 396.88 114.81H445.38V118.66H445.39Z"></path>
<path fill="#0E3157" d="M644.72 129.15V118.66V95.1702C644.98 86.7202 641.97 77.6402 636.13 71.1502C630.42 64.5402 621.87 60.3502 613.41 59.5002C605.22 58.5202 597.13 58.5902 588.8 60.1802C580.22 61.9802 572.43 67.2302 567.55 74.5002C565.09 78.1202 563.32 82.2102 562.38 86.4802C562.13 87.5602 561.95 88.6502 561.82 89.7502H569.31C569.4 89.1902 569.39 88.6102 569.52 88.0502C570.26 84.6802 571.66 81.4602 573.6 78.6102C577.45 72.8602 583.59 68.7302 590.36 67.3202C597.41 65.9602 605.18 65.8302 612.52 66.7502C619.65 67.4902 626.05 70.7302 630.66 75.9702C635.28 81.2202 637.63 87.9802 637.44 95.1702V107.77H588.94C586.73 107.79 584.78 107.71 582.12 107.89C579.63 108.18 577.14 108.7 574.82 109.67C570.15 111.55 566.07 114.8 563.18 118.92C560.3 123.03 558.62 128 558.48 133.02C558.4 135.44 558.45 137.38 558.45 139.66C558.49 142.17 558.87 144.67 559.58 147.09C562.44 156.8 571.37 164.31 581.45 165.39C584.08 165.67 586.24 165.58 588.36 165.59H594.85H607.82C617.39 165.66 627 161.78 633.8 155C635.14 153.69 636.33 152.24 637.45 150.74V165.65H644.76V129.17C644.98 129.17 645.14 129.16 644.72 129.15ZM637.41 118.66V129.09C636.86 129.09 637.12 129.1 637.41 129.11V129.12C637.39 129.12 637.4 129.12 637.38 129.12V129.16L637.37 129.25L637.36 129.43L637.34 129.79L637.3 130.51L637.22 131.95L636.78 134.8C636.36 136.68 635.8 138.51 635.07 140.3C633.57 143.84 631.38 147.09 628.63 149.79C623.14 155.23 615.54 158.32 607.78 158.28H594.8H588.31C586.11 158.28 583.93 158.32 582.27 158.13C575.04 157.37 568.57 151.93 566.52 144.95C566.02 143.21 565.74 141.41 565.71 139.6C565.71 137.55 565.67 135.17 565.74 133.27C565.84 129.64 567.05 126.09 569.12 123.12C571.2 120.15 574.15 117.81 577.51 116.45C580.94 115 584.29 115.01 588.9 115.08H637.4V118.66H637.41Z"></path>
<path fill="#0E3157" d="M535.6 117.86C534.05 116.94 532.05 116.22 530.57 115.79L526.1 114.41L508.22 108.9L490.34 103.39C487.51 102.46 483.96 101.58 482.02 100.62C479.83 99.5301 477.9 97.8801 476.51 95.7601C473.68 91.5501 472.87 85.83 474.35 80.88C475.84 75.84 479.41 71.79 484.37 69.42C494.33 64.7 507.34 64.8901 518.67 66.9701C524.21 68.1801 529.49 70.6501 532.85 74.5501C534.52 76.4801 535.69 78.75 536.25 81.24C536.5 82.5 536.65 83.7801 536.68 85.1101L536.69 89.7501H544L543.99 85.0301C543.96 83.2301 543.76 81.4201 543.38 79.6201C542.58 76.0201 540.82 72.5601 538.4 69.7901C533.51 64.1801 526.79 61.3001 520.25 59.8401C513.6 58.5001 507.3 58.1301 500.68 58.3701C494.15 58.7201 487.41 59.7501 481.11 62.8901C474.78 65.8201 469.29 71.83 467.34 78.84C465.29 85.87 466.34 93.6301 470.44 99.8301C472.47 102.93 475.41 105.52 478.8 107.19C482.51 108.88 485.11 109.34 488.19 110.38L506.07 115.89L523.95 121.4L528.42 122.78C529.93 123.24 530.88 123.59 532.03 124.24C534.21 125.44 536.05 127.24 537.36 129.37C538.64 131.51 539.42 133.96 539.47 136.45C539.49 137.72 539.29 139.12 539.23 140.45C538.86 141.7 538.75 143.05 538.21 144.22C537.37 146.67 535.79 148.72 534 150.6C532 152.29 529.83 153.92 527.2 154.96C516.92 159.33 503.94 159.63 492.8 157.26C487.25 155.9 481.94 153.45 478.42 149.55C474.82 145.59 473.45 140.78 473.72 134.73H466.41C466.33 137.66 466.51 141.69 467.63 145.06C468.69 148.55 470.58 151.83 473.04 154.49C477.99 159.89 484.61 162.75 491.08 164.36C497.68 165.93 504.19 166.23 510.73 165.91C517.25 165.49 523.9 164.49 530.2 161.63C533.38 160.34 536.34 158.26 539.04 155.89C541.58 153.31 543.83 150.27 545.05 146.79C545.78 145.1 546.01 143.3 546.46 141.55C546.58 139.77 546.8 138.06 546.78 136.21C546.69 132.47 545.54 128.76 543.61 125.56C541.65 122.37 538.89 119.67 535.6 117.86Z"></path>
<path fill="#0E3157" d="M347.93 134.73C345.94 141.48 341.86 147.61 336.16 151.8C332.11 154.89 327.33 156.96 322.31 157.84C317.15 158.82 311.81 158.88 306.61 158.14C296.36 156.67 286.87 150.91 280.84 142.48C277.83 138.28 275.71 133.47 274.55 128.45C273.48 123.52 273.17 117.74 273.12 112.38C273.15 107.02 273.48 101.26 274.49 96.2901C275.61 91.2501 277.73 86.4501 280.68 82.2101C286.66 73.7601 296.1 67.9101 306.35 66.3901C311.54 65.6001 316.88 65.6401 322.06 66.5901C327.07 67.4601 331.89 69.4601 335.95 72.5301C341.76 76.7201 345.91 82.9201 347.93 89.7601H355.53C353.34 80.6001 347.96 72.1901 340.3 66.6601C335.33 62.9201 329.43 60.4601 323.31 59.4001C317.37 58.3201 311.24 58.2601 305.26 59.1801C293.07 60.9801 281.82 67.9501 274.72 78.0001C271.2 83.0401 268.68 88.7601 267.35 94.7601C266.14 100.88 265.88 106.48 265.82 112.41C265.91 118.34 266.14 123.93 267.43 130.06C268.8 136.04 271.33 141.77 274.91 146.76C282.06 156.78 293.38 163.64 305.57 165.38C311.55 166.23 317.67 166.17 323.62 165.04C329.74 163.96 335.6 161.42 340.55 157.65C348.08 152.11 353.38 143.8 355.54 134.74H347.93V134.73Z"></path>
<path fill="#0E3157" d="M836.42 111.68C834.6 110.72 832.69 109.89 830.72 109.37L826.42 108.26L810 104.12L793.58 99.9802L789.57 98.9602C788.81 98.7502 788.08 98.4602 787.39 98.1202C786.04 97.3902 784.87 96.3902 784.03 95.2002C782.32 92.8402 782.03 89.9402 783.06 86.5602C784.12 83.3902 786.54 80.5802 789.73 78.9802C791.1 78.2602 793.58 77.5002 795.87 76.9402C798.18 76.3802 800.54 76.0102 802.91 75.8302C807.66 75.4502 812.46 75.8502 817.08 76.9702C822.2 78.2102 824.88 79.5102 827.31 82.2502C828.43 83.5602 829.29 85.0602 829.8 86.6502C830.03 87.4502 830.25 88.2602 830.31 89.0802C830.35 89.3102 830.35 89.5402 830.35 89.7702H847.22C847.19 88.9402 847.19 88.1102 847.07 87.2902C846.88 85.3002 846.42 83.3502 845.83 81.4502C844.6 77.6702 842.59 74.1802 840.04 71.2102C837.46 68.2702 834.35 65.8102 830.91 64.0502C827.24 62.2202 824.2 61.4102 821.05 60.5902C814.7 59.0402 808.11 58.5002 801.6 59.0202C798.34 59.2702 795.11 59.7902 791.93 60.5502C788.76 61.3602 785.76 62.1502 782.08 63.9602C775.17 67.4302 769.55 73.6902 767.05 81.2702C765.85 85.1302 765.29 88.9202 765.76 93.2402C766.24 97.4802 767.85 101.55 770.27 104.96C772.69 108.38 775.92 111.14 779.56 113.06C781.39 114 783.3 114.75 785.27 115.27L789.46 116.34L805.88 120.48L822.3 124.62L826.2 125.62C826.96 125.8 827.65 126.14 828.33 126.48C829.66 127.21 830.78 128.23 831.58 129.42C832.37 130.62 832.83 131.94 832.95 133.3C833.02 134.69 832.85 136.56 832.24 138.06C831.11 141.2 828.59 143.97 825.35 145.47C823.99 146.14 821.3 146.93 819.03 147.46C816.68 148 814.28 148.39 811.87 148.59C807.05 148.98 802.17 148.68 797.43 147.71C795.2 147.26 792.43 146.46 790.77 145.81C789.1 145.15 787.62 144.14 786.34 142.96C784 140.74 782.68 137.78 782.46 134.73H782.37H765.55C765.75 142.46 769.19 149.98 774.68 155.15C777.51 157.83 780.82 160 784.4 161.43C788.01 162.81 790.71 163.51 794 164.22C800.33 165.52 806.83 165.91 813.26 165.39C816.48 165.13 819.67 164.62 822.82 163.89C826.02 163.09 828.83 162.42 832.59 160.7C839.58 157.43 845.38 151.33 848.08 143.83C849.47 140.05 850.01 136.19 849.75 131.95C849.41 127.68 847.92 123.53 845.58 120.03C843.23 116.52 840.05 113.66 836.42 111.68Z"></path>
<path fill="#0E3157" d="M707.03 166.07C684.95 166.07 666.38 150.24 662.89 128.42C661.14 117.53 661.14 106.55 662.88 95.7101C666.38 73.9001 684.95 58.0701 707.02 58.0701C729.1 58.0701 747.67 73.9001 751.17 95.7201C752.91 106.57 752.91 117.57 751.17 128.42C747.67 150.23 729.11 166.07 707.03 166.07ZM706.89 74.9401C693.14 74.9401 681.58 84.8001 679.4 98.3901C677.95 107.44 677.95 116.63 679.4 125.7C681.59 139.33 693.15 149.2 706.9 149.2C720.65 149.2 732.21 139.34 734.39 125.75C735.84 116.67 735.84 107.47 734.39 98.3901C732.2 84.8001 720.64 74.9401 706.89 74.9401Z"></path>
</svg>
