<?xml version="1.0" encoding="UTF-8" standalone="no"?>
<svg
   viewBox="0 0 128 128"
   version="1.1"
   id="svg30"
   sodipodi:docname="ESPHome.svg"
   width="128"
   height="128"
   inkscape:version="1.2.2 (b0a8486541, 2022-12-01, custom)"
   xmlns:inkscape="http://www.inkscape.org/namespaces/inkscape"
   xmlns:sodipodi="http://sodipodi.sourceforge.net/DTD/sodipodi-0.dtd"
   xmlns="http://www.w3.org/2000/svg"
   xmlns:svg="http://www.w3.org/2000/svg">
  <defs
     id="defs34" />
  <sodipodi:namedview
     id="namedview32"
     pagecolor="#ffffff"
     bordercolor="#cccccc"
     borderopacity="1"
     inkscape:showpageshadow="0"
     inkscape:pageopacity="1"
     inkscape:pagecheckerboard="0"
     inkscape:deskcolor="#d1d1d1"
     showgrid="false"
     inkscape:zoom="4.126404"
     inkscape:cx="142.7393"
     inkscape:cy="46.044934"
     inkscape:window-width="1920"
     inkscape:window-height="1027"
     inkscape:window-x="0"
     inkscape:window-y="25"
     inkscape:window-maximized="1"
     inkscape:current-layer="svg30" />
  <g
     fill="none"
     fill-rule="evenodd"
     id="g28"
     transform="matrix(1.7529564,0,0,1.7529564,-14.795828,0.22746274)">
    <path
       d="M 72.63,16.18 V 12 c 0,-1.47 1.19,-2.66 2.66,-2.66 1.47,0 2.66,1.19 2.66,2.66 v 4.18 m -14.27,0 V 12 c 0,-1.47 1.19,-2.66 2.66,-2.66 A 2.65,2.65 0 0 1 69,11.99 v 4.18 M 54.72,16.18 V 12 c 0,-1.47 1.19,-2.66 2.66,-2.66 1.47,0 2.66,1.19 2.66,2.66 v 4.18 m -14.28,0 V 12 c 0,-1.47 1.19,-2.66 2.66,-2.66 1.47,0 2.66,1.19 2.66,2.66 v 4.18 m -14.28,0 V 12 c 0,-1.47 1.19,-2.66 2.66,-2.66 1.47,0 2.66,1.19 2.66,2.66 v 4.18 m -14.27,0 V 12 c 0,-1.47 1.19,-2.66 2.66,-2.66 1.47,0 2.66,1.19 2.66,2.66 v 4.18 m 44.78,39.89 v 4.68 c 0,1.47 -1.19,2.66 -2.66,2.66 -1.47,0 -2.66,-1.19 -2.66,-2.66 v -4.68 m -3.63,0 v 4.68 c 0,1.47 -1.19,2.66 -2.66,2.66 -1.47,0 -2.66,-1.19 -2.66,-2.66 v -4.68 m -3.64,0 v 4.68 c 0,1.47 -1.19,2.66 -2.66,2.66 -1.47,0 -2.66,-1.19 -2.66,-2.66 v -4.68 m -3.64,0 v 4.68 c 0,1.47 -1.19,2.66 -2.66,2.66 -1.47,0 -2.66,-1.19 -2.66,-2.66 v -4.68 m -3.64,0 v 4.68 c 0,1.47 -1.19,2.66 -2.66,2.66 -1.47,0 -2.66,-1.19 -2.66,-2.66 v -4.68 m -3.63,0.26 v 4.43 c 0,1.47 -1.19,2.66 -2.66,2.66 -1.47,0 -2.66,-1.19 -2.66,-2.66 v -4.43"
       fill="#ffffff"
       stroke="#000000"
       stroke-width="2.178"
       id="path18" />
    <path
       fill="#ffffff"
       stroke="#000000"
       stroke-width="2.42"
       d="M 79.29,16.18 H 26.51 a 0.97,0.97 0 0 0 -0.97,0.97 v 37.96 c 0,0.53 0.43,0.97 0.97,0.97 h 52.77 c 0.53,0 0.97,-0.43 0.97,-0.97 V 17.15 c 0,-0.54 -0.43,-0.97 -0.96,-0.97 z"
       id="path20" />
    <path
       fill="#000000"
       fill-rule="nonzero"
       d="m 61.6,35.42 v -5.07 h -1.8 v 3.28 L 52.99,26.82 41.5,38.32 h 2.87 v 7.75 h 17.25 v -7.75 h 2.87 z"
       id="path22" />
    <path
       stroke="#000000"
       stroke-linecap="round"
       stroke-linejoin="round"
       stroke-width="1.961"
       d="m 61.6,35.42 v -5.07 h -1.8 v 3.28 L 52.99,26.82 41.5,38.32 h 2.87 v 7.75 h 17.25 v -7.75 h 2.87 z"
       id="path24" />
    <path
       d="M 25.34,53.77 H 9.52 V 49.88 H 21.38 V 45.99 H 9.52 V 42.11 H 21.38 V 38.22 H 9.52 V 34.33 H 21.38 V 30.45 H 9.52 V 18.47"
       stroke="#000000"
       stroke-linecap="round"
       stroke-linejoin="round"
       stroke-width="2.159"
       id="path26" />
  </g>
</svg>
