<?xml version="1.0" encoding="UTF-8" standalone="no"?>
<svg
   width="128"
   height="128"
   viewBox="0 0 128 128"
   fill="none"
   version="1.1"
   id="svg20"
   sodipodi:docname="Github.svg"
   inkscape:version="1.2.2 (b0a8486541, 2022-12-01, custom)"
   xml:space="preserve"
   xmlns:inkscape="http://www.inkscape.org/namespaces/inkscape"
   xmlns:sodipodi="http://sodipodi.sourceforge.net/DTD/sodipodi-0.dtd"
   xmlns="http://www.w3.org/2000/svg"
   xmlns:svg="http://www.w3.org/2000/svg"><defs
     id="defs24" /><sodipodi:namedview
     id="namedview22"
     pagecolor="#ffffff"
     bordercolor="#cccccc"
     borderopacity="1"
     inkscape:showpageshadow="0"
     inkscape:pageopacity="1"
     inkscape:pagecheckerboard="0"
     inkscape:deskcolor="#d1d1d1"
     showgrid="false"
     inkscape:zoom="3.8117475"
     inkscape:cx="30.95693"
     inkscape:cy="73.457122"
     inkscape:window-width="1920"
     inkscape:window-height="1027"
     inkscape:window-x="0"
     inkscape:window-y="25"
     inkscape:window-maximized="1"
     inkscape:current-layer="svg20" /><path
     fill-rule="evenodd"
     clip-rule="evenodd"
     d="M 63.999976,1.5788994 C 28.639994,1.5788994 5e-6,30.218888 5e-6,65.57887 c 0,28.319983 18.319997,52.23997 43.759979,60.71997 3.199998,0.55999 4.399995,-1.36 4.399995,-3.04001 0,-1.51999 -0.07998,-6.55999 -0.07998,-11.91999 -16.079987,2.96 -20.239983,-3.92 -21.519986,-7.52 -0.719998,-1.83999 -3.839999,-7.519983 -6.559999,-9.039986 -2.24,-1.199996 -5.439998,-4.159995 -0.07998,-4.240001 5.039997,-0.07998 8.639997,4.640004 9.839994,6.559999 5.760004,9.679988 14.959996,6.959988 18.639993,5.279998 0.560005,-4.159996 2.24,-6.959994 4.079999,-8.559993 -14.239989,-1.599999 -29.119988,-7.119994 -29.119988,-31.599988 0,-6.959992 2.48,-12.719996 6.559999,-17.199987 -0.640002,-1.599999 -2.879993,-8.159998 0.640001,-16.959998 0,0 5.359992,-1.679995 17.599989,6.559999 5.120003,-1.439996 10.559992,-2.159994 15.999991,-2.159994 5.439998,0 10.879997,0.719998 15.99999,2.159994 12.239997,-8.319991 17.599999,-6.559999 17.599999,-6.559999 3.519999,8.8 1.279993,15.359999 0.639992,16.959998 4.079997,4.479991 6.559997,10.159989 6.559997,17.199987 0,24.55999 -14.959985,29.999989 -29.199983,31.599988 2.319997,2.000001 4.319998,5.839994 4.319998,11.839983 0,8.56 -0.07998,15.44 -0.07998,17.59999 0,1.68001 1.199997,3.68001 4.399995,3.04001 C 109.68,117.81884 128,93.818857 128,65.57887 128,30.218888 99.360016,1.5788994 64.000034,1.5788994 Z"
     fill="#1b1f23"
     id="path18"
     style="fill:#f0f6fc;fill-opacity:1;stroke-width:7.99999" /></svg>
