<?xml version="1.0" encoding="UTF-8" standalone="no"?>
<svg
   viewBox="52 42 128 128"
   version="1.1"
   id="svg368"
   sodipodi:docname="Gmail.svg"
   width="128"
   height="128"
   inkscape:version="1.2.2 (b0a8486541, 2022-12-01, custom)"
   xmlns:inkscape="http://www.inkscape.org/namespaces/inkscape"
   xmlns:sodipodi="http://sodipodi.sourceforge.net/DTD/sodipodi-0.dtd"
   xmlns="http://www.w3.org/2000/svg"
   xmlns:svg="http://www.w3.org/2000/svg">
  <defs
     id="defs372" />
  <sodipodi:namedview
     id="namedview370"
     pagecolor="#ffffff"
     bordercolor="#cccccc"
     borderopacity="1"
     inkscape:showpageshadow="0"
     inkscape:pageopacity="1"
     inkscape:pagecheckerboard="0"
     inkscape:deskcolor="#d1d1d1"
     showgrid="false"
     inkscape:zoom="4.5640529"
     inkscape:cx="124.01259"
     inkscape:cy="62.4445"
     inkscape:window-width="1920"
     inkscape:window-height="1027"
     inkscape:window-x="0"
     inkscape:window-y="25"
     inkscape:window-maximized="1"
     inkscape:current-layer="svg368" />
  <g
     id="g496"
     transform="matrix(1.4545455,0,0,1.4545455,-23.636368,-3.0785337)">
    <path
       fill="#4285f4"
       d="M 58,108 H 72 V 74 L 52,59 v 43 c 0,3.32 2.69,6 6,6"
       id="path358" />
    <path
       fill="#34a853"
       d="m 120,108 h 14 c 3.32,0 6,-2.69 6,-6 V 59 l -20,15"
       id="path360" />
    <path
       fill="#fbbc04"
       d="m 120,48 v 26 l 20,-15 v -8 c 0,-7.42 -8.47,-11.65 -14.4,-7.2"
       id="path362" />
    <path
       fill="#ea4335"
       d="M 72,74 V 48 L 96,66 120,48 V 74 L 96,92"
       id="path364" />
    <path
       fill="#c5221f"
       d="m 52,51 v 8 L 72,74 V 48 L 66.4,43.8 C 60.46,39.35 52,43.58 52,51"
       id="path366" />
  </g>
</svg>
