<?xml version="1.0" encoding="UTF-8" standalone="no"?>
<!-- Created with Inkscape (http://www.inkscape.org/) -->

<svg
   height="128"
   width="128"
   version="1.1"
   viewBox="0 0 128 128"
   id="svg720"
   sodipodi:docname="NodeRED.svg"
   inkscape:version="1.2.2 (b0a8486541, 2022-12-01, custom)"
   xmlns:inkscape="http://www.inkscape.org/namespaces/inkscape"
   xmlns:sodipodi="http://sodipodi.sourceforge.net/DTD/sodipodi-0.dtd"
   xmlns="http://www.w3.org/2000/svg"
   xmlns:svg="http://www.w3.org/2000/svg"
   xmlns:rdf="http://www.w3.org/1999/02/22-rdf-syntax-ns#"
   xmlns:cc="http://creativecommons.org/ns#"
   xmlns:dc="http://purl.org/dc/elements/1.1/">
  <defs
     id="defs724" />
  <sodipodi:namedview
     id="namedview722"
     pagecolor="#ffffff"
     bordercolor="#cccccc"
     borderopacity="1"
     inkscape:showpageshadow="0"
     inkscape:pageopacity="1"
     inkscape:pagecheckerboard="0"
     inkscape:deskcolor="#d1d1d1"
     showgrid="false"
     inkscape:zoom="1.316847"
     inkscape:cx="280.21479"
     inkscape:cy="141.24648"
     inkscape:window-width="1920"
     inkscape:window-height="1027"
     inkscape:window-x="0"
     inkscape:window-y="25"
     inkscape:window-maximized="1"
     inkscape:current-layer="svg720" />
  <metadata
     id="metadata708">
    <rdf:RDF>
      <cc:Work
         rdf:about="">
        <dc:format>image/svg+xml</dc:format>
        <dc:type
           rdf:resource="http://purl.org/dc/dcmitype/StillImage" />
      </cc:Work>
    </rdf:RDF>
  </metadata>
  <g
     transform="matrix(0.19782394,0,0,0.19782394,8.6092945,-80.189918)"
     id="g718">
    <g
       transform="translate(1.4172e-5,2.2107e-5)"
       id="g716">
      <path
         opacity="0.98"
         style="color:#000000;isolation:auto;mix-blend-mode:normal;solid-color:#000000;color-rendering:auto;image-rendering:auto;shape-rendering:auto"
         d="M 280,405.36 560,567.39 V 890.71 L 280,1052.4 0,890.7 -5.5092e-6,567.29 Z"
         fill="#8f0000"
         id="path710" />
      <path
         d="m 278.57,1019.5 -28.122,-14.758 -219.32,-239.19 3.8673,-12.478 h 107.86 l 19.715,-65.534 17.337,24.866 57.948,-65.047 47.857,-12.857 2.1429,33.571 33.571,3.5714 33.571,0.7143 87.143,2.1428 14.96,-70.328 74.709,87.705 -2.0935,65.238 -115.11,0.0298 -1.9844,60.416 120.23,12.653 1.4251,42.694 z"
         fill-opacity="0.19898"
         fill-rule="evenodd"
         id="path712" />
      <path
         opacity="0.98"
         style="color:#000000;text-indent:0;text-decoration-line:none;text-decoration-style:solid;text-decoration-color:#000000;text-transform:none;white-space:normal;isolation:auto;mix-blend-mode:normal;solid-color:#000000;color-rendering:auto;image-rendering:auto;shape-rendering:auto"
         d="M 21.75,766.85 V 875 c -1.46e-4,1.7862 0.95284,3.4368 2.5,4.3301 l 253.25,145.97 c 1.5471,0.8927 3.4529,0.8927 5,0 l 252.86,-145.98 c 1.5472,-0.8933 2.6427,-2.5439 2.6426,-4.3301 V 839.629 817.344 766.84 744.559 583.099 c 1.5e-4,-1.7862 -1.0954,-3.4368 -2.6426,-4.3301 L 282.5,432.8189 c -0.72594,-0.41802 -1.5453,-0.64704 -2.3828,-0.66602 -0.91698,-0.0221 -1.8224,0.20827 -2.6172,0.66602 l -253.25,145.95 c -1.5472,0.8933 -2.5001,2.5439 -2.5,4.3301 v 88.68 20.795 51.99 z M 280,442.92 528,585.98 V 744.36 H 428.643 C 411.06,744.36 396,759.043 396,776.627 v 4.3203 c -59.713,-0.44167 -77.52,-15.896 -99.729,-35.316 -18.46,-16.144 -41.584,-33.808 -88.092,-41.188 8.6712,-8.6968 13.887,-18.575 18.533,-27.002 4.9936,-9.0548 9.5102,-16.227 16.734,-21.184 5.6262,-3.8616 15.231,-6.1887 27.666,-6.9277 v 4.0606 c 0,17.583 13.655,31.97 31.238,31.97 h 127.3 c 17.583,0 33.352,-14.386 33.352,-31.97 v -31.279 c 0,-17.583 -15.706,-31.75 -33.289,-31.75 l -127.3,-0.002 c -17.583,0 -31.301,14.167 -31.301,31.75 v 5.7031 c -16.445,0.81071 -30.442,4.0316 -39.949,10.557 -11.762,8.0728 -18.195,19.038 -23.461,28.586 -5.2657,9.5484 -9.5828,17.764 -15.855,23.518 -5.3491,4.9052 -12.841,8.2718 -25.018,9.8086 -1.5749,-16.163 -15.629,-27.827 -32.172,-27.921 H 31.997 v -86.38 z m 22.414,169.44 h 127.3 c 5.9367,0 10.289,3.8124 10.289,9.7492 v 31.279 c 0,5.9367 -4.415,9.9717 -10.352,9.9716 h -127.3 c -5.9367,0 -10.766,-4.035 -10.766,-9.9716 v -31.279 c 0,-5.9367 4.8916,-9.7492 10.828,-9.7492 z m -270.41,80 h 102.65 c 5.9367,0 10.348,4.9199 10.348,10.857 v 31.281 c 0,5.9367 -4.411,9.8623 -10.348,9.8622 H 32.004 Z m 135.44,30.243 c 71.712,1.1287 91.494,19.195 114.55,39.359 22.126,19.349 49.351,39.661 114.01,40.516 v 5.4297 c 0,17.583 15.059,31.452 32.643,31.452 h 99.357 v 32.747 l -248,143.09 -248,-143.09 v -105.75 h 102.66 c 17.583,0 32.777,-14.277 32.777,-31.86 z m 261.21,43.757 h 99.355 v 51 h -99.355 c -5.9367,0 -10.645,-4.0661 -10.645,-10.003 v -30.73 c 0,-5.9367 4.7078,-10.267 10.645,-10.267 z"
         fill="#ffffff"
         id="path714" />
    </g>
  </g>
</svg>
