<?xml version="1.0" encoding="UTF-8" standalone="no"?>
<svg
   height="128"
   viewBox="0 0 128 128.00001"
   width="128"
   version="1.1"
   id="svg10722"
   sodipodi:docname="Pi-hole.svg"
   inkscape:version="1.2.2 (b0a8486541, 2022-12-01, custom)"
   xmlns:inkscape="http://www.inkscape.org/namespaces/inkscape"
   xmlns:sodipodi="http://sodipodi.sourceforge.net/DTD/sodipodi-0.dtd"
   xmlns="http://www.w3.org/2000/svg"
   xmlns:svg="http://www.w3.org/2000/svg">
  <defs
     id="defs10726" />
  <sodipodi:namedview
     id="namedview10724"
     pagecolor="#ffffff"
     bordercolor="#cccccc"
     borderopacity="1"
     inkscape:showpageshadow="0"
     inkscape:pageopacity="1"
     inkscape:pagecheckerboard="0"
     inkscape:deskcolor="#d1d1d1"
     showgrid="false"
     inkscape:zoom="2.2421053"
     inkscape:cx="129.34272"
     inkscape:cy="118.6385"
     inkscape:window-width="1920"
     inkscape:window-height="1027"
     inkscape:window-x="0"
     inkscape:window-y="25"
     inkscape:window-maximized="1"
     inkscape:current-layer="svg10722" />
  <linearGradient
     id="a"
     gradientUnits="userSpaceOnUse"
     x1="7.925993"
     x2="204.05313"
     y1="58.610023"
     y2="58.610023">
    <stop
       offset="0"
       stop-color="#12b212"
       id="stop10705" />
    <stop
       offset="1"
       stop-color="#0f0"
       id="stop10707" />
  </linearGradient>
  <g
     stroke-width="2.92465"
     id="g10720"
     transform="matrix(0.33684211,0,0,0.33684211,20.495927,-8.9999999e-7)">
    <path
       d="M 106.92545,116.78134 C 59.487603,111.72169 11.698794,75.865465 7.9259933,0 81.539477,0 120.90529,43.57731 124.70734,112.62834 138.62868,29.802201 203.87766,39.512044 203.87766,39.512044 206.97779,86.452704 168.43088,114.90957 124.70734,117.27853 112.4238,91.395366 38.839562,27.901177 38.839562,27.901177 a 0.20472562,0.20472562 0 0 0 -0.321712,0.233972 c 0,0 71.01054,61.856384 68.4076,88.646191"
       fill="url(#a)"
       id="path10710"
       style="fill:url(#a)" />
    <path
       d="M 129.15281,380 C 124.5611,379.73678 81.714956,378.09897 79.112016,329.9592 77.006266,300.71269 100.11101,279.158 100.11101,250.75964 94.875888,179.95382 1.8721e-4,188.72777 1.8721e-4,250.75964 A 58.317555,58.317555 0 0 0 17.050907,292.11421 l 70.688831,70.71808 a 58.317555,58.317555 0 0 0 41.354572,17.05072"
       fill="#980200"
       id="path10712" />
    <path
       d="m 258.30543,250.78888 c -0.26322,4.59171 -1.90103,47.43785 -50.0408,50.04079 -29.24651,2.10575 -50.83044,-20.999 -79.19956,-20.999 -70.805821,5.23513 -62.031866,100.08159 0,100.08159 a 58.317555,58.317555 0 0 0 41.35457,-17.05072 l 70.74733,-70.68884 a 58.317555,58.317555 0 0 0 17.05072,-41.35457"
       fill="#ff0000"
       id="path10714" />
    <path
       d="m 129.15281,121.63626 c 4.5917,0.26322 47.43785,1.90103 50.04079,50.04079 2.10575,29.24652 -20.999,50.8012 -20.999,79.19957 5.23512,70.80582 100.08158,62.03187 100.08158,0 A 58.317555,58.317555 0 0 0 241.22546,209.52205 L 170.50738,138.77472 A 58.317555,58.317555 0 0 0 129.15281,121.724"
       fill="#980200"
       id="path10716" />
    <path
       d="M 0.23415935,250.78888 C 0.497378,246.19718 2.135183,203.35103 50.27495,200.74809 c 29.246517,-2.10575 50.83045,20.999 79.19957,20.999 70.80582,-5.32286 62.03186,-100.08158 0,-100.08158 A 58.317555,58.317555 0 0 0 88.119943,138.71623 L 17.372618,209.43431 A 58.317555,58.317555 0 0 0 0.3218989,250.78888"
       fill="#ff0000"
       id="path10718" />
  </g>
</svg>
