<?xml version="1.0" encoding="UTF-8" standalone="no"?>
<!-- Generator: Adobe Illustrator 16.0.0, SVG Export Plug-In . SVG Version: 6.00 Build 0)  -->

<svg
   version="1.1"
   id="Layer_1"
   x="0px"
   y="0px"
   width="128"
   height="128"
   viewBox="-194 -104 128 128"
   enable-background="new -194 -104 1000 1000"
   xml:space="preserve"
   sodipodi:docname="Reddit.svg"
   inkscape:version="1.2.2 (b0a8486541, 2022-12-01, custom)"
   xmlns:inkscape="http://www.inkscape.org/namespaces/inkscape"
   xmlns:sodipodi="http://sodipodi.sourceforge.net/DTD/sodipodi-0.dtd"
   xmlns="http://www.w3.org/2000/svg"
   xmlns:svg="http://www.w3.org/2000/svg"><defs
   id="defs905" /><sodipodi:namedview
   id="namedview903"
   pagecolor="#ffffff"
   bordercolor="#cccccc"
   borderopacity="1"
   inkscape:showpageshadow="0"
   inkscape:pageopacity="1"
   inkscape:pagecheckerboard="0"
   inkscape:deskcolor="#d1d1d1"
   showgrid="false"
   inkscape:zoom="0.852"
   inkscape:cx="500"
   inkscape:cy="312.20657"
   inkscape:window-width="1920"
   inkscape:window-height="1027"
   inkscape:window-x="0"
   inkscape:window-y="25"
   inkscape:window-maximized="1"
   inkscape:current-layer="Layer_1" />
<g
   id="Artwork"
   transform="matrix(0.128,0,0,0.128,-169.168,-90.688)">
	<g
   id="g888">
		<circle
   fill="#ff4500"
   cx="306"
   cy="396"
   r="500"
   id="circle884" />
		<path
   fill="#ffffff"
   d="m 639.332,396 c 0,-40.351 -32.746,-73.099 -73.101,-73.099 -19.88,0 -37.425,7.603 -50.292,20.467 C 466.234,307.695 397.225,284.303 321.204,281.38 l 33.333,-156.141 108.188,22.809 c 1.168,27.484 23.976,49.707 52.047,49.707 28.654,0 52.046,-23.392 52.046,-52.047 0,-28.654 -23.392,-52.046 -52.046,-52.046 -20.471,0 -38.013,11.696 -46.2,29.24 L 347.521,97.169 c -3.509,-0.585 -7.017,0 -9.941,1.754 -2.924,1.754 -4.68,4.679 -5.85,8.188 L 294.889,281.38 C 217.111,283.719 147.521,306.526 97.229,343.368 84.362,331.086 66.232,322.9 46.935,322.9 c -40.351,0 -73.099,32.749 -73.099,73.099 0,29.825 17.544,54.971 43.275,66.667 -1.17,7.017 -1.754,14.62 -1.754,22.221 0,112.28 130.408,202.924 291.813,202.924 161.402,0 291.812,-90.644 291.812,-202.924 0,-7.601 -0.583,-14.62 -1.754,-21.638 23.975,-11.694 42.104,-37.425 42.104,-67.249 z m -499.999,52.046 c 0,-28.654 23.392,-52.046 52.046,-52.046 28.655,0 52.046,23.392 52.046,52.046 0,28.654 -23.392,52.047 -52.046,52.047 -28.654,0 -52.046,-23.393 -52.046,-52.047 z m 290.643,137.427 c -35.671,35.675 -103.509,38.013 -123.393,38.013 -19.882,0 -88.303,-2.925 -123.391,-38.013 -5.263,-5.263 -5.263,-14.034 0,-19.297 5.265,-5.263 14.036,-5.263 19.298,0 22.223,22.222 70.176,30.409 104.68,30.409 34.501,0 81.872,-8.188 104.677,-30.409 5.263,-5.263 14.037,-5.263 19.3,0 4.091,5.846 4.091,14.034 -1.171,19.297 z m -9.358,-85.38 c -28.655,0 -52.047,-23.393 -52.047,-52.047 0,-28.654 23.392,-52.046 52.047,-52.046 28.657,0 52.05,23.392 52.05,52.046 0,28.654 -23.393,52.047 -52.05,52.047 z"
   id="path886" />
	</g>
</g>
<g
   id="Spacing_Guide"
   display="none">
	
		<rect
   y="90"
   display="inline"
   fill="none"
   stroke="#d8d8d8"
   stroke-width="0.5"
   stroke-miterlimit="10"
   width="152.911"
   height="152.911"
   id="rect891"
   x="0" />
	
		<rect
   y="90"
   display="inline"
   fill="none"
   stroke="#d8d8d8"
   stroke-width="0.5"
   stroke-miterlimit="10"
   width="612"
   height="152.911"
   id="rect893"
   x="0" />
	
		<rect
   y="548.90997"
   display="inline"
   fill="none"
   stroke="#d8d8d8"
   stroke-width="0.5"
   stroke-miterlimit="10"
   width="612"
   height="152.911"
   id="rect895"
   x="0" />
	
		<rect
   y="90"
   display="inline"
   fill="none"
   stroke="#d8d8d8"
   stroke-width="0.5"
   stroke-miterlimit="10"
   width="152.911"
   height="612"
   id="rect897"
   x="0" />
	
		<rect
   x="459.09"
   y="90"
   display="inline"
   fill="none"
   stroke="#d8d8d8"
   stroke-width="0.5"
   stroke-miterlimit="10"
   width="152.91"
   height="612"
   id="rect899" />
</g>
</svg>
