<?xml version="1.0" encoding="UTF-8" standalone="no"?>
<svg
   xml:space="preserve"
   viewBox="0 0 128 128"
   version="1.1"
   id="svg1071"
   sodipodi:docname="Twitter.svg"
   width="128"
   height="128"
   inkscape:version="1.2.2 (b0a8486541, 2022-12-01, custom)"
   xmlns:inkscape="http://www.inkscape.org/namespaces/inkscape"
   xmlns:sodipodi="http://sodipodi.sourceforge.net/DTD/sodipodi-0.dtd"
   xmlns="http://www.w3.org/2000/svg"
   xmlns:svg="http://www.w3.org/2000/svg"><defs
   id="defs1075" /><sodipodi:namedview
   id="namedview1073"
   pagecolor="#ffffff"
   bordercolor="#cccccc"
   borderopacity="1"
   inkscape:showpageshadow="0"
   inkscape:pageopacity="1"
   inkscape:pagecheckerboard="0"
   inkscape:deskcolor="#d1d1d1"
   showgrid="false"
   inkscape:zoom="4.1764706"
   inkscape:cx="124.02817"
   inkscape:cy="82.84507"
   inkscape:window-width="1920"
   inkscape:window-height="1027"
   inkscape:window-x="0"
   inkscape:window-y="25"
   inkscape:window-maximized="1"
   inkscape:current-layer="svg1071" />
  <path
   fill="#1d9bf0"
   d="m 114.8958,37.888472 c 0.078,1.128417 0.078,2.256835 0.078,3.395653 0,34.700142 -26.416416,74.719975 -74.719971,74.719975 v -0.0208 C 25.984806,116.0041 12.012188,111.91683 0,104.21031 c 2.0748324,0.2496 4.160065,0.3744 6.2504977,0.3796 C 18.075482,104.60031 29.562462,100.63265 38.865407,93.326538 27.628032,93.113335 17.773878,85.78642 14.331424,75.089853 c 3.936461,0.759212 7.992525,0.60321 11.856185,-0.452407 C 13.936218,72.162207 5.12208,61.398039 5.12208,48.897044 V 48.564239 C 8.7725371,50.59747 12.859801,51.725888 17.040666,51.85069 5.501686,44.13897 1.9448304,28.78833 8.9129393,16.786542 22.245948,33.192798 41.917855,43.166554 63.035385,44.222171 60.918952,35.101228 63.810197,25.543479 70.632704,19.131779 81.209669,9.1892236 97.844729,9.6988316 107.78728,20.270597 c 5.8813,-1.159618 11.51818,-3.317652 16.67666,-6.3753 -1.96043,6.078895 -6.06329,11.242576 -11.54418,14.523827 5.20529,-0.61361 10.29097,-2.007231 15.08024,-4.134065 -3.52566,5.283283 -7.96652,9.885355 -13.1042,13.603413 z"
   id="path1069"
   style="stroke-width:0.520008" />
</svg>
